<?xml version="1.0" encoding="UTF-8"?>
<!DOCTYPE svg PUBLIC "-//W3C//DTD SVG 1.1//EN" "http://www.w3.org/Graphics/SVG/1.1/DTD/svg11.dtd">
<!-- Creator: CorelDRAW 2017 -->
<svg xmlns="http://www.w3.org/2000/svg" xml:space="preserve" width="33.5097mm" height="6.0706mm" version="1.1" style="shape-rendering:geometricPrecision; text-rendering:geometricPrecision; image-rendering:optimizeQuality; fill-rule:evenodd; clip-rule:evenodd"
viewBox="0 0 2695.18 488.26"
 xmlns:xlink="http://www.w3.org/1999/xlink">
 <defs>
  <style type="text/css">
   <![CDATA[
    .str1 {stroke:#FEFEFE;stroke-width:6.13;stroke-miterlimit:22.9256}
    .str0 {stroke:#2B2A29;stroke-width:6.13;stroke-miterlimit:22.9256}
    .fil0 {fill:#FEFEFE;fill-rule:nonzero}
    .fil1 {fill:#00A0E3;fill-rule:nonzero}
   ]]>
  </style>
 </defs>
 <g id="Capa_x0020_1">
  <metadata id="CorelCorpID_0Corel-Layer"/>
  <g id="_3036727607200">
   <path class="fil0 str0" d="M342.87 73.43c0,5.78 -2.04,8.62 -6.02,8.62 -6.24,0 -45.52,-1.36 -117.93,-4.09 -1.81,67.64 -2.72,121.78 -2.72,162.64 0,25.42 0.91,63.68 2.72,114.75 1.82,50.96 2.73,89.2 2.73,114.63 0,4.66 -3.18,7.04 -9.64,7.04 -3.97,0 -9.99,-0.34 -18.27,-1.02 -8.17,-0.68 -14.3,-1.02 -18.5,-1.02 -3.97,0 -10.1,0.34 -18.27,1.02 -8.17,0.68 -14.3,1.02 -18.27,1.02 -5.57,0 -8.28,-2.73 -8.28,-8.28 0,-25.31 1.02,-63.22 3.06,-113.95 2.04,-50.61 3.06,-88.75 3.06,-114.18 0,-39.49 -1.13,-93.74 -3.41,-162.64 -57.31,3.64 -99.42,5.45 -126.09,5.45 -2.61,0 -3.97,-1.13 -3.97,-3.29 0,-4.09 1.02,-9.76 3.06,-17.36 2.49,-9.76 3.97,-15.55 4.42,-17.25 0.46,-7.83 2.04,-18.61 4.77,-32.34 1.13,-2.84 2.95,-4.32 5.68,-4.32l3.97 0.35c78.43,4.54 130.18,6.8 155.27,6.8 22.13,0 58.45,-1.58 108.73,-4.87 34.39,-2.16 48.69,-3.3 42.9,-3.3 5.79,0 8.97,2.04 9.65,6.02 -0.46,-2.38 -0.68,8.28 -0.68,32.24 0,2.95 0.34,7.38 1.02,13.5 0.68,6.13 1.02,10.67 1.02,13.85zm126.09 5.9c0,27.24 -15.21,40.86 -45.63,40.86 -30.87,0 -46.3,-13.62 -46.3,-40.86 0,-12.14 4.77,-22.24 14.3,-30.19 8.86,-7.61 19.52,-11.35 32,-11.35 12.37,0 23.16,3.86 32.12,11.57 8.97,7.83 13.5,17.82 13.5,29.96zm-2.73 90.12c0,17.02 -1.02,42.79 -3.06,77.29 -2.04,34.5 -3.06,60.39 -3.06,77.63 0,16.23 0.35,40.41 1.02,72.64 0.68,32.23 1.02,56.41 1.02,72.29 0,4.66 -2.04,7.04 -6.02,7.04l-64.92 0c-4.66,0 -7.04,-4.54 -7.04,-13.62 0,-15.32 0.45,-38.37 1.25,-69.01 0.8,-30.76 1.13,-53.79 1.13,-69.35 0,-17.24 -1.25,-43.24 -3.74,-77.86 -2.5,-34.5 -3.75,-60.49 -3.75,-77.74 0,-3.75 2.27,-5.67 6.93,-5.67 3.97,0 10.1,0.56 18.39,1.7 8.28,1.02 14.53,1.59 18.72,1.59 4.2,0 10.44,-0.57 18.72,-1.59 8.29,-1.13 14.53,-1.7 18.73,-1.7 3.75,0 5.67,2.16 5.67,6.35zm298.39 5.9c0,4.87 -2.5,15.77 -7.61,32.57 -5.11,16.91 -8.73,25.31 -10.67,25.31 -9.99,-4.42 -20.09,-8.73 -30.19,-13.17 -10.1,-4.42 -21.1,-6.58 -33.02,-6.58 -27.35,0 -50.05,10.1 -68.33,30.19 -18.16,20.2 -27.24,44.04 -27.24,71.39 0,27.02 9.08,50.4 27.24,70.14 18.61,20.32 41.43,30.53 68.21,30.53 14.86,0 29.51,-3.64 43.92,-10.9 14.41,-7.26 20.77,-10.89 18.95,-10.89 2.84,0 6.13,9.31 9.65,27.92 3.29,16.79 4.99,28.38 4.99,34.84 0,6.81 -12.94,13.5 -38.93,20.2 -21.8,5.56 -37.79,8.28 -48.24,8.28 -45.73,0 -84.32,-17.03 -115.76,-51.19 -30.87,-33.26 -46.3,-72.98 -46.3,-119.06 0,-46.99 15.09,-86.94 45.28,-119.74 31.09,-33.71 69.8,-50.5 116.11,-50.5 31.09,0 59.58,7.83 85.23,23.61 4.43,2.72 6.7,4.99 6.7,7.04zm368.3 73.55c0,57.54 -26.68,96.13 -80.13,115.65 0,11.24 11.01,31.78 33.26,61.4 22.13,29.62 33.25,44.37 33.25,44.37 0,3.41 -11.12,5.57 -33.37,6.7 -14.75,0.68 -25.76,1.02 -33.02,1.02 -15.77,0 -25.76,-3.29 -29.73,-9.88 -10.33,-17.82 -26.67,-43.69 -48.92,-77.74 -2.61,-3.97 -26.67,-5.67 -72.19,-4.99l-12.93 0.35 0 82.28c0,6.93 -2.5,10.33 -7.38,10.33 -7.03,0 -17.59,-0.11 -31.43,-0.34 -13.85,-0.23 -24.4,-0.34 -31.44,-0.34 -4.88,0 -7.38,-4.32 -7.38,-12.94l0 -206.91c0,-27.01 -1.02,-67.42 -3.06,-121.33 -2.04,-53.9 -3.06,-94.31 -3.06,-121.32 0,-4.09 2.04,-6.24 6.24,-6.7 7.26,-0.23 18.27,-0.68 33.02,-1.36 3.06,-0.23 9.53,-1.02 19.41,-2.39 7.95,-1.13 14.3,-1.7 19.07,-1.7 3.06,0 4.65,2.61 4.65,7.95 0,12.02 -0.45,29.85 -1.36,53.57 -0.91,23.72 -1.36,41.54 -1.36,53.45l0 85.69c0,4.66 1.02,7.04 2.95,7.04 5.33,-4.42 13.39,-10.89 23.94,-19.52 37.34,-28.71 72.75,-43.13 106.57,-43.13 32.81,0 59.59,8.4 80.47,25.31 22.58,18.39 33.94,43.46 33.94,75.48zm-80.36 15.55c0,-31.67 -20.54,-47.56 -61.51,-47.56 -30.53,0 -64.92,20.43 -103.29,61.29l0 49.49c17.94,3.29 39.61,4.99 65.15,4.99 25.65,0 47.56,-4.88 65.72,-14.65 22.58,-12.14 33.93,-30.07 33.93,-53.57zm407.11 33.93c0,16.34 -7.04,27.35 -21.23,32.91 -9.64,3.52 -78.31,10.1 -206.22,19.75 2.84,19.52 13.62,36.09 32.35,49.82 17.82,13.05 36.89,19.64 57.31,19.64 35.18,0 67.42,-11.24 96.7,-33.6 3.63,-2.95 7.15,-5.79 10.67,-8.63 1.82,0 2.95,0.23 3.51,0.68 0.57,0.45 4.77,8.06 12.49,22.92 7.83,14.98 11.69,22.93 11.69,24.06 0,1.36 -1.82,3.86 -5.33,7.6 -32.57,34.39 -74.34,51.64 -125.41,51.64 -51.41,0 -92.38,-15.32 -123.03,-46.08 -30.53,-30.64 -45.85,-71.61 -45.85,-122.8 0,-45.74 14.64,-85.46 43.81,-119.4 30.87,-35.3 68.55,-52.89 113.38,-52.89 41.65,0 76.38,15.32 104.3,45.85 27.23,29.73 40.86,65.94 40.86,108.5zm-79 -20.2c0,-18.39 -7.26,-34.73 -21.79,-48.92 -14.53,-14.19 -30.87,-21.22 -49.14,-21.22 -20.43,0 -38.48,8.17 -54.36,24.52 -15.89,16.34 -23.84,34.73 -23.84,55.04 0,4.66 3.97,6.93 11.92,6.93 32.91,0 72.19,-3.29 117.93,-9.76 12.82,-1.82 19.29,-3.97 19.29,-6.59zm311.21 138.01c0,4.88 -0.46,11.47 -1.37,19.87 -1.02,10.33 -1.7,17.03 -1.92,20.09 -0.23,3.97 -0.57,6.35 -1.02,7.26 -0.91,1.58 -2.95,3.06 -6.25,4.65 -18.15,8.74 -46.64,13.05 -85.57,13.05 -51.42,0 -77.29,-23.49 -77.52,-70.48 0,-18.84 0.34,-47.1 1.02,-84.89 0.68,-37.79 1.02,-66.17 1.02,-85.01 0,-9.08 -4.54,-13.96 -13.62,-14.65 -8.28,0 -16.34,-0.11 -24.28,-0.34 -4.66,-1.13 -7.04,-10.21 -7.04,-27.35 0,-6.35 0.45,-13.17 1.36,-20.32 0.68,-5.33 4.2,-8.51 10.67,-9.64 5.45,0 10.9,-0.11 16.23,-0.35 10.21,-0.45 15.32,-4.99 15.32,-13.62 0,-8.86 -0.23,-22.36 -0.68,-40.63 -0.46,-18.16 -0.68,-31.78 -0.68,-40.86 0,-16.23 3.06,-24.29 9.31,-24.29 1.93,0 22.7,3.41 62.08,10.21 5.11,0.68 7.6,3.06 7.6,7.27 0,9.87 -0.79,24.52 -2.38,44.04 -1.58,19.52 -2.38,34.16 -2.38,43.92 0,6.47 3.06,9.64 9.08,9.64l80.24 0c3.75,0 5.68,1.37 5.68,3.97 0,2.61 -0.46,6.93 -1.25,12.83 -0.8,5.78 -1.14,10.21 -1.14,13.05 0,3.3 0.12,8.4 0.35,15.32 0.23,6.81 0.34,11.92 0.34,15.21 0,4.2 -3.06,6.36 -9.31,6.36 -8.97,0 -22.36,-0.57 -40.41,-1.71 -17.93,-1.13 -31.32,-1.71 -40.29,-1.71 -1.71,0 -3.06,6.35 -3.97,18.96 -0.45,15.77 -0.68,37.79 -0.68,66.28l0 49.59c0,19.07 1.82,32.35 5.34,39.84 5.22,11.58 16.11,17.36 32.69,17.36 6.8,0 16.79,-1.47 30.07,-4.42 13.17,-2.95 23.04,-4.42 29.4,-4.42 2.61,0 3.97,1.93 3.97,5.9z"/>
   <path class="fil1 str1" d="M2116.7 182.73c0,51.98 -14.08,93.63 -42.22,124.84 -29.06,32.12 -69.35,48.23 -120.77,48.23 -12.71,0 -31.78,-0.45 -57.43,-1.47 -25.54,-1.02 -44.83,-1.48 -57.65,-1.48 -7.15,0 -10.67,4.54 -10.67,13.62 0,11.8 0.8,29.4 2.38,52.89 1.59,23.61 2.39,41.2 2.39,53 0,3.75 -2.16,5.68 -6.35,5.68 -4.66,0 -11.69,-0.57 -21.11,-1.47 -9.42,-1.02 -16.46,-1.59 -21.11,-1.59 -4.09,0 -9.99,0.34 -17.7,1.02 -7.72,0.68 -13.5,1.02 -17.36,1.02 -5.57,0 -8.28,-3.4 -8.28,-10.33 0,-24.18 1.02,-60.6 3.06,-109.41 2.04,-48.69 3.06,-85.24 3.06,-109.64 0,-69.11 -2.61,-143.45 -7.83,-222.79l-0.34 -4.99c-0.23,-4.88 2.61,-7.26 8.62,-7.26 12.03,0 29.96,0.11 54.14,0.34 24.06,0.23 42.11,0.35 54.36,0.35 10.45,0 25.99,-0.46 46.87,-1.37 20.89,-0.9 36.55,-1.36 46.99,-1.36 48.92,0 89.21,16.68 120.77,49.83 30.76,32.57 46.19,73.43 46.19,122.35zm-83.76 4.99c0,-33.26 -8.97,-59.93 -26.9,-79.91 -18.61,-20.77 -44.37,-31.21 -77.06,-31.21 -10.21,0 -28.38,0.91 -54.48,2.61 -29.97,1.82 -45.4,3.64 -46.2,5.34 -1.58,2.72 -2.38,40.86 -2.38,114.4 0,9.31 0.23,23.26 0.8,41.99 0.56,18.61 0.91,32.57 0.91,41.88 0,1.93 2.38,3.51 7.26,4.65 12.14,2.39 45.97,3.64 101.35,3.64 30.98,0 55.16,-9.65 72.41,-28.94 16.23,-18.39 24.29,-43.25 24.29,-74.45zm321.41 -23.04c0,24.4 -1.7,46.65 -4.99,66.62 -0.68,5.11 -2.95,7.61 -6.7,7.61 -4.66,0 -11.69,-0.46 -21.11,-1.48 -9.53,-1.02 -16.68,-1.47 -21.56,-1.47 -28.03,0 -45.97,7.83 -53.68,23.61 -4.66,9.53 -7.04,29.4 -7.04,59.47l0 36.66c0,12.37 0.45,31.21 1.36,56.53 0.91,25.19 1.36,44.04 1.36,56.52 0,5.9 -2.49,8.97 -7.6,8.97 -6.81,0 -17.14,-0.11 -30.98,-0.35 -13.85,-0.23 -24.29,-0.34 -31.1,-0.34 -4.99,0 -7.6,-2.73 -7.6,-8.28 0,-17.94 0.34,-45.06 0.91,-81.15 0.56,-36.09 0.79,-63.33 0.79,-81.48 0,-54.71 -4.99,-98.74 -14.98,-132 -0.46,-1.81 -0.68,-3.06 -0.68,-3.97 0,-2.72 1.47,-4.54 4.31,-5.67 8.06,-0.91 19.52,-2.27 34.28,-4.09 23.72,-4.54 34.73,-6.81 32.91,-6.81 3.51,0 5.9,6.59 6.93,19.75 1.13,13.28 3.18,19.86 6.02,19.86 0.45,0 1.02,-0.23 1.7,-0.68 9.08,-5.78 18.16,-11.57 27.35,-17.48 9.99,-6.02 20.2,-10.44 30.76,-13.39 8.63,-2.61 19.75,-3.97 33.37,-3.97 17.36,0 25.99,2.39 25.99,7.04zm337.77 150.27c0,46.31 -15.21,85.92 -45.51,118.72 -31.1,33.93 -69.46,50.84 -115.31,50.84 -46.2,0 -84.67,-16.79 -115.77,-50.5 -30.3,-32.57 -45.51,-72.07 -45.51,-118.38 0,-46.3 15.21,-85.8 45.51,-118.38 31.33,-33.26 69.81,-49.83 115.77,-49.83 45.62,0 83.87,16.57 114.97,49.83 30.53,32.35 45.85,71.61 45.85,117.69zm-70.14 0.68c0,-27.02 -8.28,-50.05 -24.97,-69.12 -17.25,-20.2 -39.15,-30.3 -65.71,-30.3 -26.67,0 -48.69,9.98 -66.17,29.96 -16.69,19.3 -24.97,42.44 -24.97,69.46 0,26.56 8.4,49.71 25.31,69.12 17.71,20.65 39.61,30.98 65.83,30.98 26.32,0 48.23,-10.33 65.71,-30.98 16.68,-19.41 24.97,-42.56 24.97,-69.12z"/>
  </g>
 </g>
</svg>
