<?xml version="1.0" encoding="UTF-8"?>
<!DOCTYPE svg PUBLIC "-//W3C//DTD SVG 1.1//EN" "http://www.w3.org/Graphics/SVG/1.1/DTD/svg11.dtd">
<!-- Creator: CorelDRAW 2017 -->
<svg xmlns="http://www.w3.org/2000/svg" xml:space="preserve" width="36.4348mm" height="5.9944mm" version="1.1" style="shape-rendering:geometricPrecision; text-rendering:geometricPrecision; image-rendering:optimizeQuality; fill-rule:evenodd; clip-rule:evenodd"
viewBox="0 0 1797.33 295.7"
 xmlns:xlink="http://www.w3.org/1999/xlink">
 <defs>
  <style type="text/css">
   <![CDATA[
    .fil0 {fill:#2B2A29;fill-rule:nonzero}
    .fil1 {fill:#00A0E3;fill-rule:nonzero}
   ]]>
  </style>
 </defs>
 <g id="Capa_x0020_1">
  <metadata id="CorelCorpID_0Corel-Layer"/>
  <g id="_2044585476176">
   <path class="fil0" d="M208.41 43.16c0,3.55 -1.25,5.29 -3.69,5.29 -3.83,0 -27.92,-0.83 -72.33,-2.51 -1.11,41.49 -1.67,74.69 -1.67,99.75 0,15.59 0.56,39.05 1.67,70.38 1.11,31.26 1.67,54.71 1.67,70.31 0,2.86 -1.95,4.32 -5.91,4.32 -2.44,0 -6.13,-0.21 -11.21,-0.63 -5.01,-0.42 -8.77,-0.63 -11.35,-0.63 -2.44,0 -6.2,0.21 -11.21,0.63 -5.01,0.42 -8.77,0.63 -11.21,0.63 -3.41,0 -5.08,-1.67 -5.08,-5.08 0,-15.52 0.63,-38.77 1.88,-69.89 1.25,-31.04 1.88,-54.44 1.88,-70.03 0,-24.22 -0.7,-57.49 -2.09,-99.75 -35.15,2.23 -60.98,3.34 -77.33,3.34 -1.6,0 -2.44,-0.7 -2.44,-2.02 0,-2.51 0.63,-5.98 1.88,-10.65 1.53,-5.98 2.44,-9.54 2.71,-10.58 0.28,-4.8 1.25,-11.41 2.93,-19.84 0.7,-1.74 1.81,-2.65 3.48,-2.65l2.43 0.21c48.1,2.78 79.85,4.17 95.23,4.17 13.57,0 35.85,-0.97 66.68,-2.99 21.09,-1.32 29.86,-2.02 26.31,-2.02 3.55,0 5.5,1.25 5.92,3.69 -0.28,-1.46 -0.42,5.08 -0.42,19.77 0,1.81 0.21,4.52 0.63,8.28 0.42,3.76 0.63,6.55 0.63,8.49zm77.33 3.62c0,16.71 -9.33,25.06 -27.98,25.06 -18.93,0 -28.4,-8.35 -28.4,-25.06 0,-7.44 2.93,-13.64 8.77,-18.51 5.43,-4.67 11.97,-6.96 19.63,-6.96 7.59,0 14.2,2.37 19.7,7.1 5.5,4.8 8.28,10.93 8.28,18.38zm-1.67 55.27c0,10.44 -0.63,26.24 -1.88,47.4 -1.25,21.16 -1.88,37.04 -1.88,47.61 0,9.95 0.21,24.78 0.63,44.55 0.42,19.77 0.63,34.6 0.63,44.34 0,2.86 -1.25,4.32 -3.69,4.32l-39.81 0c-2.86,0 -4.32,-2.78 -4.32,-8.35 0,-9.4 0.28,-23.53 0.76,-42.33 0.49,-18.86 0.7,-32.99 0.7,-42.53 0,-10.58 -0.76,-26.52 -2.29,-47.75 -1.53,-21.16 -2.3,-37.1 -2.3,-47.68 0,-2.3 1.39,-3.48 4.25,-3.48 2.44,0 6.2,0.35 11.28,1.04 5.08,0.63 8.91,0.98 11.48,0.98 2.58,0 6.4,-0.35 11.48,-0.98 5.09,-0.7 8.91,-1.04 11.49,-1.04 2.3,0 3.48,1.32 3.48,3.9zm183.01 3.62c0,2.99 -1.53,9.67 -4.67,19.97 -3.13,10.37 -5.36,15.52 -6.54,15.52 -6.13,-2.71 -12.32,-5.36 -18.52,-8.08 -6.2,-2.71 -12.94,-4.04 -20.25,-4.04 -16.78,0 -30.7,6.2 -41.91,18.51 -11.14,12.39 -16.71,27.01 -16.71,43.79 0,16.57 5.57,30.91 16.71,43.02 11.41,12.46 25.41,18.73 41.84,18.73 9.12,0 18.1,-2.23 26.94,-6.68 8.84,-4.45 12.74,-6.68 11.62,-6.68 1.74,0 3.76,5.71 5.92,17.12 2.02,10.3 3.06,17.4 3.06,21.37 0,4.18 -7.94,8.28 -23.88,12.39 -13.37,3.41 -23.18,5.08 -29.59,5.08 -28.05,0 -51.72,-10.44 -71,-31.39 -18.93,-20.4 -28.4,-44.76 -28.4,-73.02 0,-28.82 9.25,-53.32 27.77,-73.44 19.07,-20.67 42.81,-30.97 71.21,-30.97 19.07,0 36.54,4.8 52.27,14.48 2.72,1.67 4.11,3.06 4.11,4.32zm225.89 45.11c0,35.29 -16.36,58.96 -49.15,70.93 0,6.89 6.75,19.49 20.4,37.66 13.57,18.17 20.39,27.22 20.39,27.22 0,2.09 -6.82,3.41 -20.47,4.11 -9.05,0.42 -15.8,0.63 -20.25,0.63 -9.67,0 -15.8,-2.02 -18.24,-6.06 -6.33,-10.93 -16.36,-26.8 -30,-47.68 -1.6,-2.44 -16.36,-3.48 -44.27,-3.06l-7.93 0.21 0 50.46c0,4.25 -1.53,6.33 -4.53,6.33 -4.31,0 -10.79,-0.07 -19.28,-0.21 -8.49,-0.14 -14.97,-0.21 -19.28,-0.21 -2.99,0 -4.52,-2.65 -4.52,-7.94l0 -126.9c0,-16.56 -0.63,-41.35 -1.88,-74.41 -1.25,-33.06 -1.88,-57.84 -1.88,-74.41 0,-2.51 1.25,-3.83 3.83,-4.11 4.45,-0.14 11.21,-0.42 20.25,-0.83 1.88,-0.14 5.85,-0.63 11.9,-1.47 4.87,-0.7 8.77,-1.04 11.7,-1.04 1.88,0 2.85,1.6 2.85,4.87 0,7.37 -0.28,18.31 -0.83,32.85 -0.56,14.55 -0.83,25.48 -0.83,32.78l0 52.56c0,2.86 0.63,4.32 1.81,4.32 3.27,-2.71 8.21,-6.68 14.69,-11.97 22.9,-17.61 44.62,-26.45 65.36,-26.45 20.12,0 36.55,5.15 49.35,15.52 13.85,11.28 20.82,26.66 20.82,46.29zm-49.29 9.54c0,-19.42 -12.6,-29.17 -37.73,-29.17 -18.73,0 -39.82,12.53 -63.35,37.59l0 30.35c11,2.02 24.29,3.06 39.96,3.06 15.73,0 29.17,-2.99 40.31,-8.98 13.85,-7.45 20.81,-18.44 20.81,-32.85zm249.69 20.81c0,10.02 -4.32,16.78 -13.02,20.19 -5.91,2.16 -48.03,6.2 -126.48,12.12 1.74,11.97 8.35,22.13 19.84,30.55 10.93,8.01 22.62,12.05 35.15,12.05 21.58,0 41.35,-6.89 59.31,-20.61 2.22,-1.81 4.39,-3.55 6.54,-5.29 1.11,0 1.81,0.14 2.16,0.42 0.35,0.28 2.93,4.94 7.66,14.06 4.8,9.19 7.17,14.06 7.17,14.76 0,0.83 -1.11,2.37 -3.27,4.66 -19.98,21.09 -45.6,31.67 -76.92,31.67 -31.53,0 -56.66,-9.4 -75.46,-28.26 -18.73,-18.79 -28.12,-43.92 -28.12,-75.32 0,-28.05 8.98,-52.42 26.87,-73.23 18.93,-21.65 42.04,-32.44 69.54,-32.44 25.54,0 46.84,9.4 63.97,28.12 16.7,18.24 25.06,40.44 25.06,66.55zm-48.45 -12.39c0,-11.28 -4.45,-21.3 -13.36,-30 -8.91,-8.7 -18.93,-13.01 -30.14,-13.01 -12.53,0 -23.6,5.01 -33.34,15.04 -9.75,10.02 -14.62,21.3 -14.62,33.76 0,2.86 2.44,4.25 7.31,4.25 20.19,0 44.27,-2.02 72.33,-5.98 7.86,-1.11 11.83,-2.44 11.83,-4.04zm190.87 84.65c0,2.99 -0.28,7.03 -0.84,12.18 -0.63,6.33 -1.04,10.44 -1.18,12.32 -0.14,2.43 -0.35,3.9 -0.63,4.45 -0.56,0.97 -1.81,1.88 -3.83,2.85 -11.13,5.36 -28.61,8.01 -52.48,8.01 -31.54,0 -47.41,-14.41 -47.54,-43.23 0,-11.55 0.21,-28.89 0.63,-52.07 0.41,-23.18 0.63,-40.58 0.63,-52.14 0,-5.57 -2.79,-8.56 -8.36,-8.98 -5.08,0 -10.02,-0.07 -14.89,-0.21 -2.86,-0.7 -4.32,-6.26 -4.32,-16.78 0,-3.9 0.28,-8.08 0.83,-12.46 0.42,-3.27 2.58,-5.22 6.54,-5.91 3.34,0 6.68,-0.07 9.95,-0.21 6.26,-0.28 9.4,-3.06 9.4,-8.35 0,-5.43 -0.14,-13.71 -0.41,-24.92 -0.28,-11.14 -0.42,-19.49 -0.42,-25.06 0,-9.95 1.88,-14.9 5.71,-14.9 1.18,0 13.92,2.09 38.08,6.26 3.13,0.42 4.66,1.88 4.66,4.46 0,6.05 -0.48,15.04 -1.46,27.01 -0.97,11.97 -1.46,20.95 -1.46,26.94 0,3.97 1.88,5.91 5.57,5.91l49.21 0c2.3,0 3.48,0.84 3.48,2.44 0,1.6 -0.28,4.25 -0.76,7.87 -0.49,3.55 -0.7,6.26 -0.7,8 0,2.02 0.07,5.15 0.21,9.4 0.14,4.18 0.21,7.31 0.21,9.33 0,2.58 -1.88,3.9 -5.71,3.9 -5.5,0 -13.71,-0.35 -24.78,-1.05 -11,-0.7 -19.21,-1.05 -24.71,-1.05 -1.05,0 -1.88,3.9 -2.44,11.63 -0.28,9.67 -0.42,23.18 -0.42,40.65l0 30.42c0,11.7 1.11,19.84 3.28,24.43 3.2,7.1 9.88,10.65 20.05,10.65 4.17,0 10.3,-0.9 18.44,-2.71 8.08,-1.81 14.13,-2.71 18.03,-2.71 1.6,0 2.44,1.18 2.44,3.62z"/>
   <path class="fil1" d="M1296.35 110.19c0,31.88 -8.63,57.42 -25.89,76.57 -17.82,19.7 -42.53,29.58 -74.07,29.58 -7.79,0 -19.49,-0.28 -35.22,-0.9 -15.66,-0.63 -27.5,-0.91 -35.36,-0.91 -4.39,0 -6.55,2.79 -6.55,8.36 0,7.24 0.49,18.03 1.46,32.44 0.98,14.48 1.47,25.27 1.47,32.5 0,2.3 -1.32,3.48 -3.9,3.48 -2.86,0 -7.17,-0.35 -12.95,-0.9 -5.78,-0.63 -10.09,-0.98 -12.95,-0.98 -2.51,0 -6.13,0.21 -10.86,0.63 -4.74,0.42 -8.28,0.63 -10.65,0.63 -3.41,0 -5.08,-2.09 -5.08,-6.33 0,-14.83 0.63,-37.17 1.88,-67.1 1.25,-29.86 1.88,-52.28 1.88,-67.25 0,-42.39 -1.6,-87.98 -4.8,-136.64l-0.21 -3.06c-0.14,-2.99 1.6,-4.45 5.29,-4.45 7.38,0 18.38,0.07 33.2,0.21 14.76,0.14 25.82,0.21 33.34,0.21 6.41,0 15.94,-0.28 28.75,-0.84 12.81,-0.55 22.42,-0.83 28.82,-0.83 30,0 54.72,10.23 74.07,30.56 18.86,19.98 28.33,45.04 28.33,75.04zm-51.37 3.06c0,-20.4 -5.5,-36.76 -16.5,-49.01 -11.41,-12.74 -27.22,-19.14 -47.26,-19.14 -6.26,0 -17.4,0.56 -33.41,1.6 -18.38,1.11 -27.85,2.23 -28.34,3.28 -0.97,1.67 -1.46,25.06 -1.46,70.17 0,5.71 0.14,14.27 0.49,25.76 0.35,11.41 0.56,19.98 0.56,25.69 0,1.18 1.46,2.16 4.45,2.85 7.45,1.47 28.19,2.23 62.16,2.23 19,0 33.83,-5.92 44.41,-17.75 9.95,-11.28 14.9,-26.52 14.9,-45.66zm197.13 -14.13c0,14.97 -1.04,28.61 -3.06,40.86 -0.42,3.13 -1.81,4.67 -4.11,4.67 -2.86,0 -7.17,-0.28 -12.95,-0.91 -5.85,-0.63 -10.23,-0.9 -13.23,-0.9 -17.19,0 -28.19,4.8 -32.92,14.48 -2.86,5.85 -4.32,18.03 -4.32,36.47l0 22.48c0,7.59 0.28,19.14 0.83,34.67 0.56,15.45 0.83,27.01 0.83,34.66 0,3.62 -1.53,5.5 -4.66,5.5 -4.18,0 -10.51,-0.07 -19,-0.21 -8.49,-0.14 -14.9,-0.21 -19.08,-0.21 -3.06,0 -4.66,-1.67 -4.66,-5.08 0,-11 0.21,-27.63 0.56,-49.77 0.35,-22.13 0.48,-38.84 0.48,-49.98 0,-33.55 -3.06,-60.56 -9.19,-80.96 -0.28,-1.11 -0.42,-1.88 -0.42,-2.44 0,-1.67 0.9,-2.78 2.64,-3.48 4.94,-0.56 11.97,-1.39 21.02,-2.51 14.55,-2.79 21.3,-4.18 20.19,-4.18 2.16,0 3.62,4.04 4.25,12.12 0.7,8.14 1.95,12.18 3.69,12.18 0.28,0 0.63,-0.14 1.04,-0.42 5.57,-3.55 11.14,-7.1 16.78,-10.72 6.13,-3.69 12.39,-6.4 18.86,-8.21 5.29,-1.6 12.12,-2.44 20.47,-2.44 10.65,0 15.94,1.47 15.94,4.32zm207.16 92.16c0,28.4 -9.33,52.69 -27.91,72.82 -19.08,20.81 -42.6,31.18 -70.72,31.18 -28.34,0 -51.93,-10.3 -71.01,-30.97 -18.58,-19.98 -27.91,-44.2 -27.91,-72.6 0,-28.4 9.33,-52.63 27.91,-72.6 19.21,-20.4 42.81,-30.56 71.01,-30.56 27.98,0 51.44,10.16 70.51,30.56 18.73,19.84 28.12,43.92 28.12,72.18zm-43.02 0.42c0,-16.57 -5.08,-30.7 -15.31,-42.39 -10.58,-12.39 -24.01,-18.58 -40.3,-18.58 -16.36,0 -29.86,6.12 -40.58,18.38 -10.24,11.83 -15.32,26.03 -15.32,42.6 0,16.29 5.15,30.49 15.52,42.39 10.86,12.67 24.29,19 40.38,19 16.15,0 29.58,-6.33 40.3,-19 10.23,-11.9 15.31,-26.11 15.31,-42.39z"/>
  </g>
  <path class="fil0" d="M1730.25 39.51c11.27,0 22.26,2.89 33.01,8.69 10.72,5.77 19.1,14.06 25.08,24.81 5.98,10.78 8.99,22.02 8.99,33.68 0,11.57 -2.94,22.72 -8.86,33.37 -5.89,10.69 -14.15,18.98 -24.81,24.87 -10.66,5.92 -21.8,8.86 -33.4,8.86 -11.63,0 -22.78,-2.94 -33.44,-8.86 -10.66,-5.89 -18.95,-14.18 -24.87,-24.87 -5.92,-10.66 -8.9,-21.8 -8.9,-33.37 0,-11.66 3,-22.89 9.02,-33.68 6.04,-10.75 14.42,-19.04 25.14,-24.81 10.75,-5.8 21.74,-8.69 33.04,-8.69zm0 11.11c-9.45,0 -18.65,2.43 -27.58,7.26 -8.93,4.82 -15.91,11.75 -20.95,20.74 -5.04,8.99 -7.56,18.34 -7.56,28.06 0,9.69 2.49,18.95 7.44,27.82 4.95,8.86 11.87,15.79 20.77,20.74 8.89,4.95 18.19,7.44 27.88,7.44 9.65,0 18.95,-2.49 27.85,-7.44 8.89,-4.95 15.82,-11.87 20.74,-20.74 4.92,-8.87 7.38,-18.13 7.38,-27.82 0,-9.72 -2.52,-19.07 -7.53,-28.06 -5.01,-8.99 -11.99,-15.91 -20.95,-20.74 -8.96,-4.83 -18.13,-7.26 -27.48,-7.26zm-29.49 93.11l0 -72.15 24.84 0c8.5,0 14.64,0.67 18.43,2 3.82,1.34 6.83,3.65 9.11,6.99 2.25,3.31 3.37,6.83 3.37,10.57 0,5.25 -1.88,9.87 -5.68,13.76 -3.76,3.92 -8.78,6.1 -15.03,6.59 2.55,1.06 4.62,2.34 6.14,3.82 2.92,2.83 6.47,7.59 10.69,14.31l8.81 14.12 -14.15 0 -6.44 -11.36c-5.04,-8.96 -9.14,-14.58 -12.24,-16.82 -2.13,-1.64 -5.22,-2.46 -9.32,-2.43l-6.87 0 0 30.61 -11.66 0zm11.66 -40.63l14.15 0c6.77,0 11.39,-1.01 13.85,-3.01 2.46,-2 3.7,-4.68 3.7,-7.96 0,-2.13 -0.61,-4.04 -1.79,-5.71 -1.18,-1.7 -2.83,-2.94 -4.92,-3.76 -2.13,-0.82 -6.01,-1.25 -11.73,-1.25l-13.27 0 0 21.69z"/>
 </g>
</svg>
